# xmcd CD database file
#
# Track frame offsets:
#	183
#	13895
#	32713
#	46458
#	70298
#	83893
#	99355
#	115353
#	127505
#	141915
#	159178
#	173820
#	187705
#	201663
#	224020
#	236868
#
# Disc length: 3407 seconds
#
# Revision: 1
# Processed by: cddbd v1.5PL3 Copyright (c) Steve Scherf et al.
# Submitted via: CDex 1.51
#
DISCID=e10d4d10
DTITLE=alfredo de la fe - sentir de cuba
DYEAR=1900
DGENRE=Salsa
TTITLE0=sonito y sabroso
TTITLE1=yo soy el punto cubano
TTITLE2=tu rica boca
TTITLE3=siboney
TTITLE4=la esquina del movimiento
TTITLE5=corazon de melon
TTITLE6=cao cao mani picao
TTITLE7=como arrullo de palmas
TTITLE8=la sopa en botella
TTITLE9=la comparsa
TTITLE10=el bodeguero
TTITLE11=la mujer de antonio
TTITLE12=inolvidable
TTITLE13=el que siembra su maiz
TTITLE14=brucamananigua
TTITLE15=la gimas negras
EXTD=
EXTT0=
EXTT1=
EXTT2=
EXTT3=
EXTT4=
EXTT5=
EXTT6=
EXTT7=
EXTT8=
EXTT9=
EXTT10=
EXTT11=
EXTT12=
EXTT13=
EXTT14=
EXTT15=
PLAYORDER=
